
      <svg data-logo="logo" xmlns="http://www.w3.org/2000/svg" viewBox="0 0 169 43">
        <g id="logogram" transform="translate(0, 1) rotate(0) "><path d="M13.0832 0.429993L23.4173 9.25886C24.0309 9.78301 24.3845 10.5522 24.3845 11.3623V18.0162L14.0503 9.18733C13.4368 8.66319 13.0832 7.894 13.0832 7.08386V0.429993Z" fill="#5624CC"/><path d="M13.0832 40.43L23.4173 31.6011C24.0309 31.077 24.3845 30.3078 24.3845 29.4977V22.8438L14.0503 31.6727C13.4368 32.1968 13.0832 32.966 13.0832 33.7761V40.43Z" fill="#5624CC"/><path d="M0.754395 9.74034L10.948 18.4005C11.4422 18.8204 12.0681 19.0507 12.7147 19.0507H20.9354L10.7669 10.3925C10.2723 9.9714 9.64557 9.74034 8.99786 9.74034H0.754395Z" fill="#5624CC"/><path d="M0.754395 31.1196L10.8853 22.4645C11.3804 22.0415 12.0086 21.8093 12.6578 21.8093H20.9599L10.7663 30.4694C10.2721 30.8893 9.64625 31.1196 8.99957 31.1196H0.754395Z" fill="#5624CC"/><path d="M38.4256 0.429993L28.0914 9.25886C27.4779 9.78301 27.1243 10.5522 27.1243 11.3623V18.0162L37.4584 9.18733C38.072 8.66319 38.4256 7.894 38.4256 7.08386V0.429993Z" fill="#5624CC"/><path d="M38.4256 40.43L28.0914 31.6011C27.4779 31.077 27.1243 30.3078 27.1243 29.4977V22.8438L37.4584 31.6727C38.072 32.1968 38.4256 32.966 38.4256 33.7761V40.43Z" fill="#5624CC"/><path d="M50.7544 9.74034L40.5608 18.4005C40.0666 18.8204 39.4407 19.0507 38.7941 19.0507H30.5733L40.7419 10.3925C41.2364 9.9714 41.8632 9.74034 42.5109 9.74034H50.7544Z" fill="#5624CC"/><path d="M50.7544 31.1196L40.6235 22.4645C40.1284 22.0415 39.5002 21.8093 38.851 21.8093H30.5489L40.7425 30.4694C41.2367 30.8893 41.8625 31.1196 42.5092 31.1196H50.7544Z" fill="#5624CC"/></g>
        <g id="logotype" transform="translate(57, 8)"><path fill="#5624cc" d="M19.58 26.56L19.58 26.56Q15.80 26.56 13.09 24.98Q10.38 23.41 8.92 20.50Q7.47 17.60 7.47 13.61L7.47 13.61Q7.47 9.62 8.92 6.70Q10.38 3.77 13.09 2.18Q15.80 0.59 19.58 0.59L19.58 0.59Q23.36 0.59 26.07 2.18Q28.79 3.77 30.24 6.70Q31.69 9.62 31.69 13.61L31.69 13.61Q31.69 17.60 30.24 20.50Q28.79 23.41 26.07 24.98Q23.36 26.56 19.58 26.56ZM19.55 22.08L19.55 22.08Q21.65 22.08 23.13 21.08Q24.62 20.09 25.41 18.20Q26.20 16.30 26.20 13.61L26.20 13.61Q26.20 10.91 25.41 9.01Q24.62 7.10 23.13 6.08Q21.65 5.07 19.55 5.07L19.55 5.07Q17.48 5.07 16.01 6.08Q14.54 7.10 13.75 9.01Q12.96 10.91 12.96 13.61L12.96 13.61Q12.96 16.30 13.75 18.20Q14.54 20.09 16.03 21.08Q17.52 22.08 19.55 22.08ZM39.67 26L34.42 26L34.42 7.24L39.15 7.24L39.36 12.73L38.69 12.56Q38.97 10.46 39.83 9.20Q40.69 7.94 41.98 7.38Q43.28 6.82 44.82 6.82L44.82 6.82Q46.85 6.82 48.26 7.69Q49.68 8.57 50.43 10.16Q51.19 11.75 51.19 13.92L51.19 13.92L51.19 26L45.94 26L45.94 15.67Q45.94 14.17 45.69 13.12Q45.45 12.07 44.82 11.53Q44.19 10.98 43.07 10.98L43.07 10.98Q41.42 10.98 40.55 12.19Q39.67 13.40 39.67 15.67L39.67 15.67L39.67 26ZM62.74 26.42L62.74 26.42Q59.87 26.42 57.75 25.21Q55.63 24.00 54.46 21.80Q53.29 19.59 53.29 16.62L53.29 16.62Q53.29 13.64 54.46 11.46Q55.63 9.27 57.73 8.04Q59.83 6.82 62.70 6.82L62.70 6.82Q65.50 6.82 67.57 8.04Q69.63 9.27 70.77 11.54Q71.91 13.82 71.91 16.97L71.91 16.97L71.91 18.02L58.71 18.02Q58.82 20.26 59.92 21.34Q61.02 22.43 62.84 22.43L62.84 22.43Q64.17 22.43 65.06 21.87Q65.96 21.31 66.34 20.16L66.34 20.16L71.63 20.47Q70.89 23.27 68.51 24.84Q66.13 26.42 62.74 26.42ZM58.71 14.80L58.71 14.80L66.52 14.80Q66.41 12.73 65.38 11.72Q64.35 10.70 62.70 10.70L62.70 10.70Q61.06 10.70 59.99 11.77Q58.92 12.84 58.71 14.80ZM79.12 26L73.41 26L73.41 20.64L79.12 20.64L79.12 26ZM85.49 26L79.99 26L88.95 1.15L95.25 1.15L104.21 26L98.68 26L96.86 20.71L87.31 20.71L85.49 26ZM92.10 6.75L88.81 16.34L95.39 16.34L92.10 6.75ZM110.83 26L105.51 26L105.51 1.15L110.83 1.15L110.83 26Z"/></g>
        
      </svg>
    